inDegrees=yes
name=ik_S47_A06_T01
DataType=double
version=3
OpenSimVersion=4.3-2021-08-27-4bc7ad9
endheader
time	pelvis_tilt	pelvis_list	pelvis_rotation	pelvis_tx	pelvis_ty	pelvis_tz	hip_flexion_r	hip_adduction_r	hip_rotation_r	knee_angle_r	knee_angle_r_beta	ankle_angle_r	subtalar_angle_r	mtp_angle_r	hip_flexion_l	hip_adduction_l	hip_rotation_l	knee_angle_l	knee_angle_l_beta	ankle_angle_l	subtalar_angle_l	mtp_angle_l	lumbar_extension	lumbar_bending	lumbar_rotation	arm_flex_r	arm_add_r	arm_rot_r	elbow_flex_r	pro_sup_r	wrist_flex_r	wrist_dev_r	arm_flex_l	arm_add_l	arm_rot_l	elbow_flex_l	pro_sup_l	wrist_flex_l	wrist_dev_l
24.69999999999956	-14.64369574295149	-4.353695537319646	33.05630048775897	0	0.9399999999999999	0	40.79805971663649	-10.0937204059364	-9.957701957381801	49.9734053802163	0.8722004623186231	0	0	0	40.79805971663649	-10.0937204059364	-9.957701957381801	49.9734053802163	0.8722004623186231	0	0	0	-15.29721160999679	4.836937978300023	-7.908945013110659	50.22695132178247	-2.124790500553133	20.08412075898911	35.7966394982895	110.3648247236308	0	0	97.07734094841605	-10.90437061626545	17.36589188070862	9.318355089312083	56.71094070509245	0	0
24.71999999999956	-14.65783388853459	-4.361015234167776	33.04455333143405	0	0.9399999999999999	0	40.79886793513617	-10.09365806551284	-9.957720047346914	49.97405870139869	0.8722118649243289	0	0	0	40.79886793513617	-10.09365806551284	-9.957720047346914	49.97405870139869	0.8722118649243289	0	0	0	-15.31293882291495	4.8407183949335	-7.915262030935325	50.17329011024388	-2.171419655755658	20.07304981252927	35.8592406252743	110.3836881175292	0	0	97.00033372450753	-10.91620999926751	17.24238632686238	9.17717411152034	56.69130279380101	0	0
24.73999999999956	-14.69021911740187	-4.375097732736865	33.03791550329596	0	0.9399999999999999	0	40.79967445236552	-10.09359577615782	-9.957738115798021	49.97470964451648	0.8722232260249776	0	0	0	40.79967445236552	-10.09359577615782	-9.957738115798021	49.97470964451648	0.8722232260249776	0	0	0	-15.34723845426812	4.845669167431809	-7.912242085632082	50.15902132492319	-2.214899449071311	20.07505150463925	35.92427275153441	110.386559802124	0	0	96.92808550005049	-10.91016077792811	17.29443544838071	9.170704034062329	56.53828653980715	0	0
24.75999999999956	-14.7069500648874	-4.400647837021778	33.01197435338017	0	0.9399999999999999	0	40.80087072828097	-10.09350357164578	-9.95776488135718	49.97567680754485	0.8722401062042261	0	0	0	40.80087072828097	-10.09350357164578	-9.95776488135718	49.97567680754485	0.8722401062042261	0	0	0	-15.37355980344628	4.82894949984053	-7.898405360447643	50.15020126651283	-2.2637483017623	20.09927582746656	36.01442397697092	110.3267673516732	0	0	96.78922954932179	-10.86544850282515	17.60695457189813	9.226769621185948	56.12702799835844	0	0
24.77999999999956	-14.71966906098242	-4.407203489498356	32.99530500409188	0	0.9399999999999999	0	40.80253877013304	-10.09337469518761	-9.957802266717181	49.97702143493819	0.8722635743794526	0	0	0	40.80253877013304	-10.09337469518761	-9.957802266717181	49.97702143493819	0.8722635743794526	0	0	0	-15.38598669262141	4.824325340749335	-7.874984183519429	50.10028284573649	-2.325367422900807	20.15610290101384	36.07490882941772	110.2799223811054	0	0	96.58869354084099	-10.80969061829011	18.00950644173903	9.390176051696335	55.65061489057224	0	0
24.79999999999956	-14.74192857820884	-4.424334300403526	32.98417139712339	0	0.9399999999999999	0	40.80395960188267	-10.09326532326408	-9.957834038267896	49.97816998732177	0.8722836204001776	0	0	0	40.80395960188267	-10.09326532326408	-9.957834038267896	49.97816998732177	0.8722836204001776	0	0	0	-15.41202249956386	4.815716918657874	-7.852794474711609	50.10819837766851	-2.387815143619734	20.18367188757371	36.13301799217417	110.2350848902183	0	0	96.41506065203009	-10.77641832189696	18.35665454786413	9.675209948147669	55.14698294816561	0	0
24.81999999999956	-14.74299696507893	-4.431808069137692	32.98190997529501	0	0.9399999999999999	0	40.81361236119194	-10.09277475198274	-9.958007806500987	49.986413124859	0.8724274902908969	0	0	0	40.81361236119194	-10.09277475198274	-9.958007806500987	49.986413124859	0.8724274902908969	0	0	0	-15.41612401241015	4.81301224405201	-7.851011280207894	50.04935933694736	-2.435145982954589	20.26388674323243	36.19514714723328	110.2142202343498	0	0	96.41931240970503	-10.76639731513844	18.37112346921244	9.703342574042512	55.17198829606766	0	0
24.83999999999956	-14.77953086351987	-4.4576089285642	32.97015498801862	0	0.9399999999999999	0	40.81511217439047	-10.09265928413567	-9.958041357482255	49.98762180404538	0.8724485857222997	0	0	0	40.81511217439047	-10.09265928413567	-9.958041357482255	49.98762180404538	0.8724485857222997	0	0	0	-15.45985920907208	4.808911748416905	-7.844008525200765	50.09759819848245	-2.455058772752854	20.28396979951408	36.22561891823123	110.1882411173602	0	0	96.3281097913127	-10.76038898899215	18.57066290064901	9.905311114961545	54.965573462647	0	0
24.85999999999956	-14.80251765639076	-4.485987981579675	32.98862898382109	0	0.9399999999999999	0	40.79403046643836	-10.09286550864264	-9.95781207021412	49.96774041153557	0.872101589963122	0	0	0	40.79403046643836	-10.09286550864264	-9.95781207021412	49.96774041153557	0.872101589963122	0	0	0	-15.49587054359991	4.79667212086073	-7.86785043648747	50.11845024605471	-2.443877635274943	20.28276553113261	36.25159673237147	110.1847752915059	0	0	96.40280787372008	-10.77583717940086	18.61267019741599	9.927533899504432	55.25372598718057	0	0
